<?xml version="1.0" standalone="no"?>
<!DOCTYPE svg PUBLIC "-//W3C//DTD SVG 20010904//EN"
 "http://www.w3.org/TR/2001/REC-SVG-20010904/DTD/svg10.dtd">
<svg version="1.0" xmlns="http://www.w3.org/2000/svg"
 width="1024.000000pt" height="1024.000000pt" viewBox="0 0 1024.000000 1024.000000"
 preserveAspectRatio="xMidYMid meet">

<g transform="translate(0.000000,1024.000000) scale(0.100000,-0.100000)"
fill="#000000" stroke="none">
<path d="M0 5120 l0 -5120 5120 0 5120 0 0 5120 0 5120 -5120 0 -5120 0 0
-5120z m2705 1326 c202 -54 408 -177 553 -330 469 -496 413 -1284 -121 -1711
-98 -79 -286 -175 -408 -209 -629 -177 -1279 197 -1446 832 -34 128 -43 353
-19 487 83 481 459 860 941 950 129 24 373 14 500 -19z m2320 -578 c86 -79 36
-211 -79 -211 -115 0 -166 133 -81 211 28 26 43 32 80 32 37 0 52 -6 80 -32z
m963 -550 l-3 -583 -87 -3 -88 -3 0 67 0 66 -40 -35 c-55 -50 -107 -75 -188
-88 -137 -23 -262 20 -355 121 -64 69 -94 138 -103 238 -17 182 73 349 224
420 51 24 69 27 167 27 128 0 173 -16 249 -85 l46 -43 0 242 0 241 90 0 90 0
-2 -582z m952 -3 l0 -585 -90 0 -90 0 0 66 0 66 -50 -45 c-68 -61 -131 -82
-245 -81 -68 0 -104 6 -147 23 -80 31 -159 106 -200 189 -30 60 -33 77 -37
174 -4 127 11 185 68 267 125 182 417 217 574 69 l37 -35 0 238 0 239 90 0 90
0 0 -585z m-2820 314 l0 -261 52 57 c61 67 104 91 189 104 131 21 248 -19 316
-107 53 -70 56 -92 60 -404 l4 -288 -90 0 -91 0 0 233 c0 264 -9 317 -60 361
-67 56 -189 54 -269 -5 -82 -59 -110 -169 -111 -432 l0 -158 -87 3 -88 3 -3
565 c-1 311 0 571 3 578 3 8 31 12 90 12 l85 0 0 -261z m3500 -107 c145 -57
250 -218 250 -384 l0 -58 -326 0 -325 0 7 -22 c23 -77 90 -140 166 -158 103
-25 229 11 271 76 l22 34 93 0 c107 0 105 3 54 -94 -52 -96 -153 -158 -290
-178 -205 -30 -396 61 -478 227 -27 56 -29 68 -29 175 0 105 2 120 27 170 52
105 139 182 252 222 71 26 228 20 306 -10z m520 -56 l0 -85 50 54 c83 87 189
119 315 95 79 -15 147 -57 187 -115 51 -72 58 -123 58 -417 l0 -268 -89 0 -89
0 -4 253 c-3 232 -5 255 -24 291 -35 68 -62 81 -164 81 -82 0 -91 -2 -132 -30
-28 -21 -53 -50 -73 -90 l-30 -58 -5 -221 -5 -221 -92 -3 -93 -3 0 411 0 410
95 0 95 0 0 -84z m-1580 -1088 l0 -173 173 173 173 173 116 -3 117 -3 -168
-175 -168 -175 166 -220 c92 -121 170 -226 175 -232 5 -10 -18 -13 -106 -13
l-113 1 -125 170 c-69 94 -129 173 -133 176 -5 3 -31 -16 -58 -43 l-49 -48 0
-128 0 -128 -90 0 -90 0 0 410 0 410 90 0 90 0 0 -172z m1132 134 c142 -70
236 -226 226 -378 l-3 -49 -323 -3 -323 -2 6 -23 c17 -55 64 -111 120 -140 31
-16 58 -21 120 -21 96 -1 164 27 198 80 l22 34 93 0 c92 0 93 0 86 -22 -44
-144 -172 -236 -351 -253 -150 -15 -282 34 -382 140 -79 85 -105 162 -99 294
5 108 37 181 113 257 93 94 177 125 325 121 97 -2 112 -5 172 -35z m542 -294
c54 -183 101 -337 104 -342 3 -5 55 144 116 330 l112 339 91 3 92 3 -9 -28
c-130 -404 -319 -963 -340 -1009 -36 -76 -100 -148 -154 -176 -57 -29 -165
-35 -240 -14 -80 23 -148 91 -171 170 -9 31 -15 68 -13 83 l3 28 85 0 84 0 9
-41 c10 -52 34 -74 88 -81 80 -11 131 40 183 185 14 40 26 75 26 78 0 2 -27 4
-60 4 l-59 0 -10 38 c-6 20 -57 200 -114 400 l-104 362 91 0 92 0 98 -332z"/>
<path d="M2315 6040 c-237 -35 -447 -184 -548 -390 -64 -129 -81 -201 -81
-335 0 -129 17 -203 74 -320 183 -377 659 -518 1022 -304 309 182 439 566 305
899 -124 306 -452 497 -772 450z m181 -459 c102 -62 121 -187 43 -276 l-29
-33 20 -95 c10 -52 22 -107 26 -121 l6 -26 -146 0 c-110 0 -146 3 -146 13 0 6
10 63 22 124 21 104 21 114 6 125 -35 28 -58 82 -58 139 0 99 72 168 175 169
32 0 61 -7 81 -19z"/>
<path d="M5460 5367 c-49 -16 -123 -93 -138 -143 -41 -139 24 -271 154 -310
194 -58 369 97 324 287 -16 67 -94 151 -155 168 -50 14 -139 13 -185 -2z"/>
<path d="M6392 5355 c-176 -89 -173 -343 4 -431 57 -28 175 -26 230 3 167 89
178 320 20 418 -42 25 -62 31 -125 33 -66 3 -83 0 -129 -23z"/>
<path d="M7341 5364 c-38 -19 -62 -40 -82 -72 -16 -25 -29 -52 -29 -59 0 -10
46 -13 220 -13 241 0 237 -1 206 58 -55 105 -199 144 -315 86z"/>
<path d="M7391 4364 c-38 -19 -62 -40 -82 -72 -16 -25 -29 -52 -29 -59 0 -10
47 -13 225 -13 l225 0 -11 27 c-49 130 -196 182 -328 117z"/>
</g>
</svg>
