<?xml version="1.0" standalone="no"?>
<!DOCTYPE svg PUBLIC "-//W3C//DTD SVG 20010904//EN"
 "http://www.w3.org/TR/2001/REC-SVG-20010904/DTD/svg10.dtd">
<svg version="1.0" xmlns="http://www.w3.org/2000/svg"
 width="1024.000000pt" height="1024.000000pt" viewBox="0 0 1024.000000 1024.000000"
 preserveAspectRatio="xMidYMid meet">

<g transform="translate(0.000000,1024.000000) scale(0.100000,-0.100000)"
fill="#000000" stroke="none">
<path d="M2230 6465 c-239 -39 -443 -141 -618 -309 -178 -171 -286 -365 -338
-606 -25 -116 -25 -343 0 -458 144 -675 808 -1076 1465 -886 563 163 916 732
816 1310 -61 345 -270 642 -578 818 -204 117 -511 171 -747 131z m349 -431
c36 -9 108 -36 160 -61 80 -38 108 -59 186 -137 79 -77 99 -105 139 -186 62
-127 79 -201 79 -330 0 -129 -18 -204 -78 -325 -74 -150 -170 -249 -316 -325
-111 -58 -213 -83 -334 -83 -128 1 -216 21 -335 80 -79 39 -109 61 -180 133
-97 98 -139 163 -184 287 -29 83 -31 96 -31 233 0 133 3 152 28 225 87 247
271 419 522 485 90 24 254 26 344 4z"/>
<path d="M2345 5586 c-37 -17 -80 -62 -94 -99 -23 -60 -5 -134 44 -183 l26
-26 -21 -102 c-12 -55 -24 -109 -26 -118 -5 -17 6 -18 135 -18 106 0 141 3
141 13 0 6 -11 60 -24 119 l-23 107 28 27 c56 53 65 160 19 224 -42 60 -138
86 -205 56z"/>
<path d="M4883 5880 c-40 -24 -53 -48 -53 -100 0 -92 89 -147 170 -105 42 22
60 53 60 105 0 52 -18 83 -60 105 -39 20 -79 19 -117 -5z"/>
<path d="M5810 5655 l0 -246 -31 35 c-43 50 -139 94 -219 102 -173 17 -323
-65 -394 -216 -42 -89 -49 -225 -17 -327 54 -174 207 -274 402 -260 92 6 151
30 213 87 l46 43 0 -67 0 -66 85 0 85 0 0 580 0 580 -85 0 -85 0 0 -245z
m-134 -293 c47 -24 100 -81 120 -128 20 -47 17 -141 -5 -189 -23 -51 -98 -118
-149 -133 -64 -19 -141 -15 -197 12 -92 44 -138 116 -138 221 -1 106 59 193
158 230 55 20 158 14 211 -13z"/>
<path d="M6760 5659 l0 -241 -51 46 c-97 88 -251 109 -394 55 -82 -31 -172
-120 -205 -204 -34 -86 -35 -253 -1 -338 32 -81 113 -166 193 -203 57 -26 74
-29 168 -29 93 0 112 3 161 26 31 15 72 43 92 63 l37 37 0 -66 0 -65 90 0 90
0 0 580 0 580 -90 0 -90 0 0 -241z m-135 -297 c89 -46 135 -122 135 -224 0
-146 -120 -248 -276 -235 -102 8 -183 67 -213 156 -17 51 -13 140 8 186 25 55
89 113 142 131 58 19 154 12 204 -14z"/>
<path d="M3950 5310 l0 -570 84 0 84 0 4 208 c4 223 11 256 63 332 83 120 292
120 353 0 21 -42 22 -55 22 -292 l0 -248 85 0 85 0 0 280 c0 249 -2 285 -19
329 -26 69 -63 113 -123 147 -50 27 -60 29 -163 29 -100 0 -115 -2 -161 -27
-48 -25 -88 -63 -126 -118 -16 -24 -17 -13 -17 238 l-1 262 -85 0 -85 0 0
-570z"/>
<path d="M7339 5536 c-120 -34 -239 -137 -279 -243 -81 -213 19 -444 227 -523
73 -28 218 -38 294 -20 118 28 209 93 253 182 39 77 38 78 -55 78 l-80 0 -47
-48 c-54 -55 -100 -72 -195 -72 -112 0 -215 74 -233 168 l-6 32 326 0 c304 0
326 1 326 18 -1 60 -25 166 -50 219 -32 70 -98 142 -159 172 -94 48 -226 63
-322 37z m227 -164 c21 -11 49 -31 60 -44 24 -25 54 -81 54 -98 0 -7 -76 -10
-231 -10 l-230 0 6 23 c9 28 53 85 86 109 68 51 178 59 255 20z"/>
<path d="M7960 5145 l0 -405 84 0 84 0 4 208 c5 223 11 257 63 332 78 113 279
121 346 14 23 -38 24 -45 27 -296 l3 -258 91 0 90 0 -4 278 c-4 250 -6 282
-25 328 -29 74 -65 117 -125 149 -44 24 -68 30 -140 33 -140 7 -227 -31 -299
-131 l-29 -40 0 96 0 97 -85 0 -85 0 0 -405z"/>
<path d="M6390 4145 l0 -405 85 0 84 0 3 131 3 131 51 44 50 43 130 -174 129
-174 109 -1 108 0 -24 33 c-13 17 -87 115 -164 217 -77 102 -144 191 -148 199
-6 9 41 63 165 187 l174 174 -115 0 -115 0 -177 -177 -178 -178 0 178 0 177
-85 0 -85 0 0 -405z"/>
<path d="M7370 4532 c-294 -98 -386 -462 -169 -673 193 -188 573 -147 683 74
39 76 38 77 -58 77 l-84 0 -26 -35 c-15 -19 -46 -45 -69 -57 -51 -26 -155 -35
-215 -19 -51 14 -116 70 -143 122 -37 73 -56 69 307 69 l327 0 -8 73 c-13 136
-66 237 -161 309 -68 52 -123 69 -234 74 -74 3 -107 0 -150 -14z m213 -143
c64 -17 147 -107 147 -159 0 -6 -79 -10 -231 -10 l-230 0 6 23 c17 53 90 124
150 145 40 14 111 14 158 1z"/>
<path d="M7960 4543 c1 -4 52 -183 113 -398 l113 -390 61 -3 62 -3 -25 -65
c-60 -160 -98 -204 -177 -204 -56 0 -93 27 -107 81 l-11 39 -85 0 -86 0 7 -37
c28 -161 122 -244 274 -246 139 -2 226 59 297 205 27 58 344 998 344 1022 0 3
-38 6 -85 6 l-84 0 -113 -345 c-62 -190 -115 -342 -119 -337 -4 4 -52 158
-107 342 l-100 335 -86 3 c-47 1 -86 -1 -86 -5z"/>
</g>
</svg>
